REM DIRINDEX 1\2\4,1\2\5,1\2\6,1\3\7,1\3\8
REM DIRNAME cjc128,folder01,folder02,folder03,folder04,folder05,folder06,folder07
TITLE ""
FILE "002_Lesson 01_Output_Stage.mp3" MP3
  TRACK 01 AUDIO
    TITLE "0:"
    INDEX 01 00:00:00
  TRACK 02 AUDIO
    TITLE "8:cjc128_2445"
    INDEX 01 00:00:09
  TRACK 03 AUDIO
    TITLE "0:"
    INDEX 01 00:02:61
  TRACK 04 AUDIO
    TITLE "8:cjc128_2446"
    INDEX 01 00:03:31
  TRACK 05 AUDIO
    TITLE "0:"
    INDEX 01 00:04:31
  TRACK 06 AUDIO
    TITLE "7:cjc128_2447"
    INDEX 01 00:05:20
  TRACK 07 AUDIO
    TITLE "0:"
    INDEX 01 00:07:25
  TRACK 08 AUDIO
    TITLE "8:cjc128_2448"
    INDEX 01 00:10:00
  TRACK 09 AUDIO
    TITLE "0:"
    INDEX 01 00:11:05
  TRACK 10 AUDIO
    TITLE "7:cjc128_2449"
    INDEX 01 00:11:66
  TRACK 11 AUDIO
    TITLE "0:"
    INDEX 01 00:14:49
  TRACK 12 AUDIO
    TITLE "8:cjc128_2450"
    INDEX 01 00:17:74
  TRACK 13 AUDIO
    TITLE "0:"
    INDEX 01 00:19:20
  TRACK 14 AUDIO
    TITLE "7:cjc128_2451"
    INDEX 01 00:20:04
  TRACK 15 AUDIO
    TITLE "0:"
    INDEX 01 00:22:66
  TRACK 16 AUDIO
    TITLE "8:cjc128_2452"
    INDEX 01 00:26:13
  TRACK 17 AUDIO
    TITLE "0:"
    INDEX 01 00:27:32
  TRACK 18 AUDIO
    TITLE "7:cjc128_2453"
    INDEX 01 00:28:17
  TRACK 19 AUDIO
    TITLE "0:"
    INDEX 01 00:31:53
  TRACK 20 AUDIO
    TITLE "8:cjc128_2454"
    INDEX 01 00:35:74
  TRACK 21 AUDIO
    TITLE "0:"
    INDEX 01 00:37:16
  TRACK 22 AUDIO
    TITLE "7:cjc128_2455"
    INDEX 01 00:38:02
  TRACK 23 AUDIO
    TITLE "0:"
    INDEX 01 00:39:70
  TRACK 24 AUDIO
    TITLE "8:cjc128_2456"
    INDEX 01 00:42:29
  TRACK 25 AUDIO
    TITLE "0:"
    INDEX 01 00:43:52
  TRACK 26 AUDIO
    TITLE "7:cjc128_2457"
    INDEX 01 00:44:40
  TRACK 27 AUDIO
    TITLE "0:"
    INDEX 01 00:46:41
  TRACK 28 AUDIO
    TITLE "8:cjc128_2458"
    INDEX 01 00:49:08
  TRACK 29 AUDIO
    TITLE "0:"
    INDEX 01 00:50:33
  TRACK 30 AUDIO
    TITLE "7:cjc128_2459"
    INDEX 01 00:51:22
  TRACK 31 AUDIO
    TITLE "0:"
    INDEX 01 00:53:21
  TRACK 32 AUDIO
    TITLE "8:cjc128_2460"
    INDEX 01 00:55:50
  TRACK 33 AUDIO
    TITLE "0:"
    INDEX 01 00:56:67
  TRACK 34 AUDIO
    TITLE "7:cjc128_2461"
    INDEX 01 00:57:56
  TRACK 35 AUDIO
    TITLE "0:"
    INDEX 01 00:59:63
  TRACK 36 AUDIO
    TITLE "8:cjc128_2462"
    INDEX 01 01:02:54
  TRACK 37 AUDIO
    TITLE "0:"
    INDEX 01 01:04:05
  TRACK 38 AUDIO
    TITLE "7:cjc128_2463"
    INDEX 01 01:04:62
  TRACK 39 AUDIO
    TITLE "0:"
    INDEX 01 01:07:04
  TRACK 40 AUDIO
    TITLE "8:cjc128_2464"
    INDEX 01 01:09:65
  TRACK 41 AUDIO
    TITLE "0:"
    INDEX 01 01:10:71
  TRACK 42 AUDIO
    TITLE "7:cjc128_2465"
    INDEX 01 01:11:60
  TRACK 43 AUDIO
    TITLE "0:"
    INDEX 01 01:14:33
  TRACK 44 AUDIO
    TITLE "8:cjc128_2466"
    INDEX 01 01:17:49
  TRACK 45 AUDIO
    TITLE "0:"
    INDEX 01 01:18:68
  TRACK 46 AUDIO
    TITLE "7:cjc128_2467"
    INDEX 01 01:19:58
  TRACK 47 AUDIO
    TITLE "0:"
    INDEX 01 01:21:33
  TRACK 48 AUDIO
    TITLE "8:cjc128_2468"
    INDEX 01 01:23:56
  TRACK 49 AUDIO
    TITLE "0:"
    INDEX 01 01:24:73
  TRACK 50 AUDIO
    TITLE "7:cjc128_2469"
    INDEX 01 01:25:62
  TRACK 51 AUDIO
    TITLE "0:"
    INDEX 01 01:27:42
  TRACK 52 AUDIO
    TITLE "8:cjc128_2470"
    INDEX 01 01:30:20
  TRACK 53 AUDIO
    TITLE "0:"
    INDEX 01 01:31:43
  TRACK 54 AUDIO
    TITLE "7:cjc128_2471"
    INDEX 01 01:32:33
  TRACK 55 AUDIO
    TITLE "0:"
    INDEX 01 01:34:22
  TRACK 56 AUDIO
    TITLE "8:cjc128_2472"
    INDEX 01 01:36:58
  TRACK 57 AUDIO
    TITLE "0:"
    INDEX 01 01:38:04
  TRACK 58 AUDIO
    TITLE "7:cjc128_2473"
    INDEX 01 01:38:71
  TRACK 59 AUDIO
    TITLE "0:"
    INDEX 01 01:40:56
